<svg width="472" height="111" viewBox="0 0 472 111" fill="none" xmlns="http://www.w3.org/2000/svg">
<path d="M143.467 25.4062H129.64V31.9128C129.64 36.5894 127.099 40.1477 121.812 40.1477H119.271V53.6692H128.217V75.324C128.217 85.3889 134.622 91.5904 145.094 91.5904C149.973 91.5904 152.515 90.4721 153.125 90.1671V77.3573C152.21 77.5606 150.685 77.8656 149.058 77.8656C145.704 77.8656 143.467 76.7473 143.467 72.579V53.6692H153.328V40.1477H143.467V25.4062Z" fill="white"/>
<path d="M171.309 59.3625C171.614 55.6009 174.867 50.8226 181.374 50.8226C188.694 50.8226 191.337 55.4992 191.54 59.3625H171.309ZM192.659 72.4773C191.235 76.4423 188.084 79.0856 182.492 79.0856C176.494 79.0856 171.309 75.019 171.004 69.3257H206.18C206.282 69.0207 206.485 66.6824 206.485 64.5474C206.485 48.281 196.827 38.6228 181.17 38.6228C168.056 38.6228 155.957 48.9926 155.957 65.2591C155.957 82.2372 168.361 92.2004 182.289 92.2004C195.099 92.2004 203.13 84.8805 205.57 76.1373L192.659 72.4773Z" fill="white"/>
<path d="M209.29 76.7473C209.29 84.7789 215.695 92.0988 226.777 92.0988C233.487 92.0988 238.367 89.2521 241.01 84.9822C241.01 88.4388 240.908 90.2688 241.01 90.6755H254.837C254.735 90.1671 254.837 86.8122 254.837 82.8472V58.1425C254.837 47.7726 248.838 38.6228 232.47 38.6228C217.627 38.6228 210.917 48.1793 210.307 55.3976L223.727 58.1425C224.032 54.3809 226.98 50.7209 232.369 50.7209C237.248 50.7209 239.79 53.2626 239.79 56.2109C239.79 57.9392 238.875 59.2608 236.13 59.6675L224.235 61.4975C215.899 62.7175 209.29 67.8007 209.29 76.7473ZM230.539 80.9156C226.269 80.9156 224.54 78.3739 224.54 75.7306C224.54 72.1724 226.98 70.6474 230.234 70.139L239.79 68.6141V70.8507C239.79 78.6789 235.114 80.9156 230.539 80.9156Z" fill="white"/>
<path d="M276.478 90.6755V61.5991C276.478 57.0242 279.427 52.8559 284.815 52.8559C290.406 52.8559 292.948 56.6175 292.948 61.3958V90.6755H308.198V61.4975C308.198 57.0242 311.146 52.8559 316.636 52.8559C322.126 52.8559 324.668 56.6175 324.668 61.3958V90.6755H339.613V57.9392C339.613 44.2144 330.463 38.6228 320.906 38.6228C314.094 38.6228 309.215 40.8594 305.25 46.5527C302.708 41.5711 297.523 38.6228 290.305 38.6228C284.815 38.6228 278.308 41.4694 275.767 45.9427V40.1477H261.025V90.6755H276.478Z" fill="white"/>
<path d="M346.213 77.5603C346.213 85.2869 352.618 92.2001 362.581 92.2001C371.324 92.2001 376.204 87.5235 378.339 84.0669C378.339 87.6252 378.136 89.4552 378.339 90.6751H387.591C387.387 89.4552 387.591 86.9135 387.591 82.6436V58.1422C387.591 48.5857 381.897 40.2491 367.258 40.2491C356.684 40.2491 348.246 46.7557 347.23 56.1089L356.379 58.2439C356.989 52.5506 360.751 48.3823 367.461 48.3823C374.883 48.3823 378.034 52.3473 378.034 57.1255C378.034 58.8539 377.221 60.3788 374.273 60.7855L361.056 62.7171C352.618 63.9371 346.213 68.8171 346.213 77.5603ZM363.903 84.1686C359.023 84.1686 355.973 80.7119 355.973 77.052C355.973 72.6804 359.023 70.3421 363.089 69.7321L378.034 67.4954V69.7321C378.034 80.4069 371.731 84.1686 363.903 84.1686Z" fill="white"/>
<path d="M402.371 109.992V84.0669C405.014 88.4385 410.708 91.9968 418.231 91.9968C432.566 91.9968 441.004 80.7119 441.004 66.1738C441.004 51.9406 433.176 40.6557 418.536 40.6557C410.606 40.6557 404.811 44.519 402.168 49.399V41.7741H392.916V109.992H402.371ZM431.244 66.1738C431.244 76.2387 425.653 83.4569 416.808 83.4569C408.064 83.4569 402.27 76.2387 402.27 66.1738C402.27 56.4139 408.064 49.094 416.808 49.094C425.754 49.094 431.244 56.4139 431.244 66.1738Z" fill="white"/>
<path d="M461.428 26.3209H452.684V34.2508C452.684 38.5208 450.448 41.7741 445.161 41.7741H442.518V50.4156H451.871V77.2553C451.871 86.1002 457.158 91.1835 465.494 91.1835C468.748 91.1835 471.188 90.5735 472.001 90.2685V82.1352C471.188 82.3386 469.459 82.5419 468.239 82.5419C463.258 82.5419 461.428 80.3053 461.428 75.832V50.4156H472.001V41.7741H461.428V26.3209Z" fill="white"/>
<path d="M38.0086 83.8807L40.281 87.5381C36.4937 85.3299 31.949 84.6398 27.4732 85.6749L18.728 87.7451C3.78553 91.3334 -6.40566 72.8396 4.6807 62.0746L29.4012 37.9222C27.6109 41.6486 26.3714 45.651 25.9582 49.7224C24.9942 57.9342 26.9223 66.353 31.3981 73.3227L38.0086 83.8807Z" fill="white"/>
<path d="M90.7559 79.257L90.6182 93.1273C90.5493 97.2677 89.241 101.063 86.7621 104.099C84.4897 106.86 81.3222 108.93 77.7415 109.896C74.1608 110.931 70.3735 110.793 67.0683 109.62C63.4187 108.309 60.3201 105.825 58.1166 102.305L44.0692 79.8781L37.1144 68.906C33.0517 62.4883 31.2614 54.7596 32.0877 47.2379C32.432 43.9945 33.3272 40.8202 34.6355 37.7839C34.7044 39.0261 34.9109 40.3372 35.2552 41.5793C37.0456 48.756 42.3478 54.2075 49.4403 56.2777L79.1875 64.9036C85.5914 66.7668 90.205 72.5633 90.7559 79.257Z" fill="white"/>
<path d="M90.9607 15.7708V16.1159V19.2212L90.5476 64.8346C90.5476 64.8346 90.5476 64.7656 90.4787 64.7656C87.9998 61.5223 84.4879 59.0381 80.3564 57.8649L51.7109 49.5841C46.3398 47.997 42.346 43.8566 40.9688 38.405C39.7982 33.8506 40.6934 29.1581 43.3789 25.5008C43.9298 24.7417 44.5495 24.0516 45.1692 23.4306L64.5876 4.45372C69.1323 -0.0317188 75.6739 -1.20483 81.527 1.27941C87.38 3.76365 91.0296 9.3532 90.9607 15.7708Z" fill="white"/>
</svg>
